<svg width="48" xmlns="http://www.w3.org/2000/svg" height="48" id="screenshot-8eddf0ff-0040-80ee-8006-2c89f9aa3e73" viewBox="0 0 48 48" xmlns:xlink="http://www.w3.org/1999/xlink" fill="none" version="1.1"><g id="shape-8eddf0ff-0040-80ee-8006-2c89f9aa3e73" width="48" height="48" rx="0" ry="0" style="fill: rgb(0, 0, 0);"><g id="shape-8eddf0ff-0040-80ee-8006-2c89f9ac19ec" style="display: none;"><g class="fills" id="fills-8eddf0ff-0040-80ee-8006-2c89f9ac19ec"><rect width="48" height="48" x="0" transform="matrix(1.000000, 0.000000, 0.000000, 1.000000, 0.000000, 0.000000)" style="fill: none;" ry="0" fill="none" rx="0" y="0"/></g></g><g id="shape-8eddf0ff-0040-80ee-8006-2c89f9aca0fe"><g class="fills" id="fills-8eddf0ff-0040-80ee-8006-2c89f9aca0fe"><path d="M18.858,17.938L26.286,17.938L26.286,21.638C27.356,19.510,30.100,17.598,34.222,17.598C42.124,17.598,44.000,21.834,44.000,29.606L44.000,44.000L36.000,44.000L36.000,31.376C36.000,26.950,34.930,24.454,32.206,24.454C28.428,24.454,26.858,27.144,26.858,31.374L26.858,44.000L18.858,44.000ZM5.140,43.660L13.140,43.660L13.140,17.598L5.140,17.598ZM14.286,9.100C14.287,10.454,13.744,11.753,12.780,12.704C11.813,13.666,10.504,14.204,9.140,14.200C7.779,14.197,6.474,13.661,5.504,12.706C4.544,11.751,4.003,10.454,4.000,9.100C4.000,7.746,4.540,6.450,5.506,5.494C6.473,4.536,7.780,3.999,9.142,4.000C10.506,4.000,11.814,4.538,12.780,5.494C13.746,6.450,14.286,7.746,14.286,9.100Z" fill-rule="evenodd" clip-rule="evenodd" style="fill: rgb(255, 255, 255);"/></g></g></g></svg>